<svg xmlns="http://www.w3.org/2000/svg" viewBox="0 0 140.17 140.17"><defs><style>.cls-1{fill:#65b54f;}.cls-2{fill:#bed465;}.cls-3{fill:#fff;}.cls-4{fill:#ee901f;}.cls-5{fill:#e73727;}.cls-6{fill:#1d1d1b;}</style></defs><title>Fichier 5</title><g id="Calque_2" data-name="Calque 2"><g id="Calque_1-2" data-name="Calque 1"><circle cx="70.08" cy="70.08" r="70.08"/><path class="cls-1" d="M70.08,7.4A62.57,62.57,0,0,0,21.15,30.92H119A62.55,62.55,0,0,0,70.08,7.4Z"/><path class="cls-2" d="M131.54,57.74A62.26,62.26,0,0,0,119,30.92H21.15A62.49,62.49,0,0,0,8.62,57.74Z"/><path class="cls-3" d="M7.4,70.08A62.77,62.77,0,0,0,9.1,84.55h122a62.47,62.47,0,0,0,.47-26.81H8.62A62.75,62.75,0,0,0,7.4,70.08Z"/><path class="cls-4" d="M22.93,111.36h94.31a62.53,62.53,0,0,0,13.83-26.81H9.1A62.42,62.42,0,0,0,22.93,111.36Z"/><path class="cls-5" d="M70.08,132.77a62.54,62.54,0,0,0,47.16-21.41H22.93A62.54,62.54,0,0,0,70.08,132.77Z"/><path class="cls-6" d="M70.74,115.11H69.43l-37.29-82h20L70.74,76.29,89.55,33.06H108Z"/></g></g></svg>