<svg xmlns="http://www.w3.org/2000/svg" viewBox="0 0 195.31 195.31"><defs><style>.cls-1,.cls-9{fill:#fff;}.cls-1,.cls-5{stroke:#000;}.cls-1,.cls-12,.cls-2,.cls-3,.cls-4,.cls-5{stroke-miterlimit:10;}.cls-1{stroke-width:4px;}.cls-2{fill:#eee;}.cls-12,.cls-2,.cls-3,.cls-4{stroke:#1d1d1b;}.cls-2,.cls-3,.cls-4,.cls-5{stroke-width:2px;}.cls-3{fill:#bbbbba;}.cls-12,.cls-4{fill:none;}.cls-5{fill:#ddd;}.cls-6{fill:#1d1d1b;}.cls-7{fill:#65b54f;}.cls-8{fill:#bed465;}.cls-10{fill:#ee901f;}.cls-11{fill:#e73727;}.cls-12{stroke-width:1.83px;}</style></defs><title>Fichier 5</title><g id="Calque_2" data-name="Calque 2"><g id="Calque_1-2" data-name="Calque 1"><circle class="cls-1" cx="97.66" cy="97.66" r="95.66"/><polygon class="cls-2" points="13.32 124.21 97.65 152.84 97.66 152.84 181.99 124.21 97.66 95.57 97.65 95.57 13.32 124.21"/><polygon class="cls-3" points="87.06 131.16 76.84 127.37 104.06 118.13 114.29 121.92 87.06 131.16"/><line class="cls-4" x1="104.06" y1="118.13" x2="104.06" y2="125.09"/><polyline class="cls-5" points="104.06 118.13 104.06 125.39 114.29 121.92 104.06 118.13"/><path class="cls-6" d="M35.16,115.41h-.74L13.32,69H24.61L35.16,93.45,45.81,69H56.27Z"/><path class="cls-6" d="M110.16,113.72V69h11.51a36.73,36.73,0,0,1,8.42.77,15,15,0,0,1,5.52,2.6,12.39,12.39,0,0,1,3.87,4.55,12.62,12.62,0,0,1,1.38,5.78A13.24,13.24,0,0,1,136,93.45q-4.83,4-13.1,4l-1.29,0c-.29,0-.56,0-.8,0v16.36Zm12.13-36.53h-1.45V89.13h1.94A10.35,10.35,0,0,0,129,87.57a5.22,5.22,0,0,0,2.13-4.49,5,5,0,0,0-2.1-4.47Q126.88,77.19,122.29,77.19Z"/><path class="cls-6" d="M136.2,113.72,159,67.59h.67L182,113.72H170.81L168,107.21H149.83l-2.9,6.51Zm16.72-14.23h11.75l-5.8-14Z"/><path class="cls-7" d="M84,62.54,65.9,84.5l-1.3-4.12L82.71,58.47Z"/><path class="cls-8" d="M87.11,72.26Q78,83.29,69,94.32c-1.44-4.56-2.15-6.78-3.11-9.82L84,62.54Z"/><path class="cls-9" d="M90.81,83.86,72.71,106,69,94.32q9-11,18.1-22.06Z"/><path class="cls-10" d="M93.92,93.58q-9,11.15-18.11,22.27L72.71,106l18.1-22.17C92.26,88.38,93,90.57,93.92,93.58Z"/><path class="cls-11" d="M95.22,97.66Q86.16,108.81,77.11,120l-1.3-4.12q9-11.14,18.11-22.27Z"/><polygon class="cls-12" points="82.71 58.47 95.22 98.05 95.22 98.05 77.11 119.97 64.6 80.39 64.6 80.38 82.71 58.47"/></g></g></svg>